<svg xmlns="http://www.w3.org/2000/svg" viewBox="0 0 222.63 203.1">
    <g fill="#ffffff">
        <path d="M75,111.2H72.21l-1.09-2.86h-5l-1,2.86H62.34l4.88-12.58h2.69l5,12.58Zm-4.65-5-1.75-4.65-1.7,4.65Zm5.13,2.42,2.42-.36a1.73,1.73,0,0,0,.63,1.06,2.12,2.12,0,0,0,1.32.36,2.48,2.48,0,0,0,1.41-.34.77.77,0,0,0,.31-.65.64.64,0,0,0-.17-.45,1.76,1.76,0,0,0-.8-.32,13.1,13.1,0,0,1-3.7-1.18,2.34,2.34,0,0,1-1.09-2,2.55,2.55,0,0,1,.94-2,4.35,4.35,0,0,1,2.9-.81,5.14,5.14,0,0,1,2.78.61,3.19,3.19,0,0,1,1.25,1.81l-2.27.43a1.4,1.4,0,0,0-.55-.83,2,2,0,0,0-1.17-.28,2.61,2.61,0,0,0-1.37.27.55.55,0,0,0-.28.48.53.53,0,0,0,.24.44,8.56,8.56,0,0,0,2.26.68,6.74,6.74,0,0,1,2.7,1.08,2.22,2.22,0,0,1,.76,1.79,2.75,2.75,0,0,1-1,2.16,4.64,4.64,0,0,1-3.1.9,5.11,5.11,0,0,1-3-.75,3.48,3.48,0,0,1-1.42-2.05Zm9.77,0,2.42-.36a1.73,1.73,0,0,0,.63,1.06,2.12,2.12,0,0,0,1.32.36,2.43,2.43,0,0,0,1.4-.34.76.76,0,0,0,.32-.65.64.64,0,0,0-.17-.45,1.76,1.76,0,0,0-.81-.32,13.23,13.23,0,0,1-3.7-1.18,2.35,2.35,0,0,1-1.08-2,2.52,2.52,0,0,1,.94-2,4.34,4.34,0,0,1,2.89-.81,5.15,5.15,0,0,1,2.79.61,3.19,3.19,0,0,1,1.25,1.81l-2.27.43a1.4,1.4,0,0,0-.55-.83,2.07,2.07,0,0,0-1.17-.28,2.59,2.59,0,0,0-1.37.27.55.55,0,0,0-.28.48.53.53,0,0,0,.24.44,8.56,8.56,0,0,0,2.26.68,6.74,6.74,0,0,1,2.7,1.08,2.21,2.21,0,0,1,.75,1.79,2.74,2.74,0,0,1-1,2.16,4.64,4.64,0,0,1-3.1.9,5.11,5.11,0,0,1-2.95-.75,3.44,3.44,0,0,1-1.42-2.05Zm10.06-2.1a5,5,0,0,1,.59-2.33,4.08,4.08,0,0,1,1.68-1.71,4.91,4.91,0,0,1,2.42-.6,4.57,4.57,0,0,1,3.39,1.34,4.66,4.66,0,0,1,1.32,3.4,4.76,4.76,0,0,1-1.33,3.44,4.54,4.54,0,0,1-3.36,1.36,5.29,5.29,0,0,1-2.39-.57,4,4,0,0,1-1.73-1.66,5.6,5.6,0,0,1-.59-2.67Zm2.48.13a3,3,0,0,0,.64,2.08,2.05,2.05,0,0,0,1.59.72,2,2,0,0,0,1.57-.72,3.05,3.05,0,0,0,.64-2.1,3,3,0,0,0-.64-2.06,2,2,0,0,0-1.57-.72,2.05,2.05,0,0,0-1.59.72,3,3,0,0,0-.64,2.08Zm16.75-1.87-2.37.42a1.74,1.74,0,0,0-.54-1.07,1.71,1.71,0,0,0-1.11-.35,1.79,1.79,0,0,0-1.43.62,3.2,3.2,0,0,0-.54,2.09,3.65,3.65,0,0,0,.55,2.29,1.75,1.75,0,0,0,1.45.67,1.59,1.59,0,0,0,1.12-.39,2.3,2.3,0,0,0,.62-1.35l2.37.41a4.15,4.15,0,0,1-1.41,2.46,4.35,4.35,0,0,1-2.8.84,4.18,4.18,0,0,1-3.19-1.26,5.79,5.79,0,0,1,0-7,4.2,4.2,0,0,1,3.22-1.26,4.35,4.35,0,0,1,2.64.72,4,4,0,0,1,1.41,2.18Zm1.83-3.94V98.62h2.41v2.23Zm0,10.35v-9.12h2.41v9.12Zm10.83,3.46v-4.55a3.53,3.53,0,0,1-1.17,1,3.35,3.35,0,0,1-1.53.36,3.24,3.24,0,0,1-2.56-1.17,5.46,5.46,0,0,1-1.18-3.7,5,5,0,0,1,1.11-3.44,3.59,3.59,0,0,1,2.77-1.23,3.15,3.15,0,0,1,1.57.38,3.54,3.54,0,0,1,1.19,1.16v-1.35h2.21v12.58Zm.07-8.11a3.26,3.26,0,0,0-.56-2.09,1.8,1.8,0,0,0-1.43-.69,1.82,1.82,0,0,0-1.46.7,3.43,3.43,0,0,0-.59,2.22,3.32,3.32,0,0,0,.57,2.17,1.75,1.75,0,0,0,1.39.67,1.86,1.86,0,0,0,1.46-.75,3.41,3.41,0,0,0,.62-2.23ZM138,111.2v-1.36a3.71,3.71,0,0,1-3,1.59,3.31,3.31,0,0,1-1.65-.41,2.41,2.41,0,0,1-1.06-1.13,5,5,0,0,1-.33-2v-5.79h2.41v4.2a11.61,11.61,0,0,0,.13,2.36,1.28,1.28,0,0,0,.49.69,1.46,1.46,0,0,0,.89.25,1.85,1.85,0,0,0,1.11-.34,1.65,1.65,0,0,0,.67-.84,9.66,9.66,0,0,0,.19-2.46v-3.86h2.4v9.12Zm4.7-10.35V98.62h2.41v2.23Zm0,10.35v-9.12h2.41v9.12Zm4.71-9.12h2.21v1.25a3.57,3.57,0,0,1,2.84-1.44,3,3,0,0,1,1.51.36,2.72,2.72,0,0,1,1.06,1.09,4.17,4.17,0,0,1,1.29-1.09,3.21,3.21,0,0,1,1.49-.36,3.34,3.34,0,0,1,1.7.41,2.49,2.49,0,0,1,1,1.2,5,5,0,0,1,.25,1.88v5.82h-2.41V106a4,4,0,0,0-.24-1.75,1.16,1.16,0,0,0-1-.51,1.7,1.7,0,0,0-1,.3,1.76,1.76,0,0,0-.64.91,6.52,6.52,0,0,0-.2,1.88v4.37h-2.4v-5a7.15,7.15,0,0,0-.13-1.71,1.14,1.14,0,0,0-.4-.58,1.32,1.32,0,0,0-.73-.18,1.7,1.7,0,0,0-1,.29,1.68,1.68,0,0,0-.64.87,6.34,6.34,0,0,0-.2,1.88v4.42h-2.4v-9.12Z" />
        <path d="M79.52,131.3V118.72H83.6a15.11,15.11,0,0,1,3,.19,3.33,3.33,0,0,1,1.81,1.23,3.9,3.9,0,0,1,.73,2.45,4.11,4.11,0,0,1-.42,2,3.43,3.43,0,0,1-1.07,1.24,3.75,3.75,0,0,1-1.31.6,14.49,14.49,0,0,1-2.63.18H82.07v4.74Zm2.55-10.45v3.58h1.39a6.47,6.47,0,0,0,2-.2,1.58,1.58,0,0,0,.79-.62,1.69,1.69,0,0,0,.29-1,1.59,1.59,0,0,0-.4-1.13,1.8,1.8,0,0,0-1-.57,13.53,13.53,0,0,0-1.82-.08Zm9.17,10.45V118.72h5.35a9.34,9.34,0,0,1,2.93.34,2.91,2.91,0,0,1,1.46,1.21,3.6,3.6,0,0,1,.55,2,3.4,3.4,0,0,1-.83,2.34,4,4,0,0,1-2.48,1.16,5.75,5.75,0,0,1,1.35,1,14.18,14.18,0,0,1,1.44,2l1.54,2.45h-3l-1.82-2.75a17.33,17.33,0,0,0-1.34-1.84,2,2,0,0,0-.77-.52,4,4,0,0,0-1.28-.14h-.52v5.25Zm2.54-7.25h1.88a9.7,9.7,0,0,0,2.28-.16,1.35,1.35,0,0,0,.72-.53,1.66,1.66,0,0,0,.25-1,1.44,1.44,0,0,0-1.29-1.52c-.21,0-.83,0-1.85,0h-2v3.2Zm9.61,1a8.08,8.08,0,0,1,.58-3.23,5.94,5.94,0,0,1,1.17-1.73,5,5,0,0,1,1.63-1.14,6.93,6.93,0,0,1,2.71-.49,5.89,5.89,0,0,1,4.45,1.72A6.67,6.67,0,0,1,115.6,125a6.56,6.56,0,0,1-1.66,4.77,6.59,6.59,0,0,1-8.89,0,6.51,6.51,0,0,1-1.66-4.72ZM106,125a4.73,4.73,0,0,0,1,3.25,3.25,3.25,0,0,0,2.51,1.1,3.21,3.21,0,0,0,2.5-1.1,4.8,4.8,0,0,0,1-3.28,4.69,4.69,0,0,0-1-3.23,3.21,3.21,0,0,0-2.52-1.07,3.25,3.25,0,0,0-2.54,1.08,4.76,4.76,0,0,0-1,3.25Zm11.57-6.28h4.63a9,9,0,0,1,2.39.24,4.21,4.21,0,0,1,1.89,1.16,5.46,5.46,0,0,1,1.2,2,9.42,9.42,0,0,1,.41,3,8.19,8.19,0,0,1-.39,2.68,5.57,5.57,0,0,1-1.34,2.22,4.42,4.42,0,0,1-1.78,1,7.51,7.51,0,0,1-2.24.27h-4.77V118.72Zm2.55,2.13v8.32H122a6.79,6.79,0,0,0,1.52-.12,2.24,2.24,0,0,0,1-.52,2.69,2.69,0,0,0,.66-1.21,8.3,8.3,0,0,0,.25-2.31,7.55,7.55,0,0,0-.25-2.23,2.85,2.85,0,0,0-.72-1.22,2.41,2.41,0,0,0-1.17-.59,11.46,11.46,0,0,0-2.08-.12Zm10.05,10.45V118.72h2.54V131.3Zm5,0V118.72h5.35a9.3,9.3,0,0,1,2.93.34,2.94,2.94,0,0,1,1.47,1.21,3.68,3.68,0,0,1,.55,2,3.4,3.4,0,0,1-.83,2.34,4,4,0,0,1-2.48,1.16,5.75,5.75,0,0,1,1.35,1,14.18,14.18,0,0,1,1.44,2l1.53,2.45h-3l-1.82-2.75a15.6,15.6,0,0,0-1.35-1.84,1.92,1.92,0,0,0-.76-.52,4.05,4.05,0,0,0-1.28-.14h-.52v5.25Zm2.55-7.25h1.88a9.7,9.7,0,0,0,2.28-.16,1.36,1.36,0,0,0,.71-.53,1.66,1.66,0,0,0,.26-1,1.44,1.44,0,0,0-1.3-1.52c-.2,0-.82,0-1.85,0h-2v3.2Z" />
        <path d="M26.12,190.07h3.76a7.31,7.31,0,0,1,1.94.2,3.39,3.39,0,0,1,1.53.94,4.37,4.37,0,0,1,1,1.65,7.56,7.56,0,0,1,.34,2.41,6.66,6.66,0,0,1-.32,2.17,4.48,4.48,0,0,1-1.09,1.8,3.51,3.51,0,0,1-1.44.81,6,6,0,0,1-1.82.22H26.12v-10.2Zm2.07,1.73v6.75h1.53a5.83,5.83,0,0,0,1.24-.1,1.88,1.88,0,0,0,.83-.43,2,2,0,0,0,.53-1,6.59,6.59,0,0,0,.21-1.87,6,6,0,0,0-.21-1.81,2.28,2.28,0,0,0-.58-1,2,2,0,0,0-.95-.48,9.87,9.87,0,0,0-1.68-.09Zm8.21.08v-1.81h2v1.81Zm0,8.39v-7.39h2v7.39Zm3.25-2.08,2-.3a1.37,1.37,0,0,0,.51.86,1.68,1.68,0,0,0,1.07.29,2,2,0,0,0,1.14-.27.64.64,0,0,0,.26-.53.55.55,0,0,0-.14-.37,1.54,1.54,0,0,0-.66-.25,10.67,10.67,0,0,1-3-1,1.92,1.92,0,0,1-.87-1.67,2,2,0,0,1,.75-1.61,3.54,3.54,0,0,1,2.36-.66,4.07,4.07,0,0,1,2.25.5,2.56,2.56,0,0,1,1,1.47l-1.84.34a1.19,1.19,0,0,0-.45-.67,1.69,1.69,0,0,0-1-.23,2.05,2.05,0,0,0-1.11.22.46.46,0,0,0-.23.39.45.45,0,0,0,.2.36,7.63,7.63,0,0,0,1.83.55,5.58,5.58,0,0,1,2.19.87,1.8,1.8,0,0,1,.61,1.46,2.21,2.21,0,0,1-.85,1.74,3.72,3.72,0,0,1-2.51.73,4.09,4.09,0,0,1-2.39-.61,2.76,2.76,0,0,1-1.16-1.65Zm12-5.31v1.55H50.31v3a6.65,6.65,0,0,0,0,1.06.39.39,0,0,0,.17.25.52.52,0,0,0,.33.1,2.36,2.36,0,0,0,.79-.19l.17,1.52a3.81,3.81,0,0,1-1.54.29,2.37,2.37,0,0,1-1-.17,1.4,1.4,0,0,1-.62-.46,1.75,1.75,0,0,1-.28-.77,10,10,0,0,1-.06-1.38v-3.24h-.9v-1.55h.9v-1.47l2-1.15v2.62Zm3.23,7.39h-2v-7.39h1.81v1.05a3.1,3.1,0,0,1,.84-1,1.61,1.61,0,0,1,.85-.23,2.49,2.49,0,0,1,1.29.37l-.61,1.7a1.73,1.73,0,0,0-.92-.32,1.06,1.06,0,0,0-.69.23,1.54,1.54,0,0,0-.45.81,11.52,11.52,0,0,0-.17,2.48v2.28Zm3.68-8.39v-1.81h1.95v1.81Zm0,8.39v-7.39h1.95v7.39Zm3.87,0v-10.2h1.95v3.68a2.8,2.8,0,0,1,2.14-1,2.9,2.9,0,0,1,2.24,1,4.1,4.1,0,0,1,.88,2.81,4.29,4.29,0,0,1-.9,2.92,2.81,2.81,0,0,1-2.19,1,2.61,2.61,0,0,1-1.25-.32,3.08,3.08,0,0,1-1.06-.95v1.09Zm1.92-3.84a3.13,3.13,0,0,0,.37,1.7,1.54,1.54,0,0,0,1.35.79,1.38,1.38,0,0,0,1.1-.56,2.7,2.7,0,0,0,.46-1.75,2.86,2.86,0,0,0-.46-1.83,1.44,1.44,0,0,0-1.18-.56,1.48,1.48,0,0,0-1.17.54,2.56,2.56,0,0,0-.47,1.67Zm11.75,3.84v-1.11a2.94,2.94,0,0,1-2.45,1.29,2.71,2.71,0,0,1-1.34-.32,2,2,0,0,1-.86-.92,4.29,4.29,0,0,1-.26-1.64v-4.69h2v3.4a9.66,9.66,0,0,0,.11,1.92,1,1,0,0,0,.39.55,1.19,1.19,0,0,0,.73.21,1.52,1.52,0,0,0,.9-.28,1.31,1.31,0,0,0,.54-.68,7.76,7.76,0,0,0,.15-2v-3.12h2v7.39Zm3.82-8.39v-1.81h2v1.81Zm0,8.39v-7.39h2v7.39Zm10.39-5.2-1.92.34a1.35,1.35,0,0,0-.44-.86,1.36,1.36,0,0,0-.89-.29,1.48,1.48,0,0,0-1.17.5,2.6,2.6,0,0,0-.43,1.69,3,3,0,0,0,.44,1.87,1.44,1.44,0,0,0,1.18.54,1.33,1.33,0,0,0,.91-.32,1.88,1.88,0,0,0,.5-1.09l1.92.33a3.45,3.45,0,0,1-1.14,2,3.58,3.58,0,0,1-2.28.67,3.37,3.37,0,0,1-2.58-1,4.7,4.7,0,0,1,0-5.69,3.45,3.45,0,0,1,2.62-1,3.62,3.62,0,0,1,2.14.58,3.23,3.23,0,0,1,1.14,1.77ZM84.88,203v-.82a12.91,12.91,0,0,0,1.32.08,1.54,1.54,0,0,0,.92-.22.54.54,0,0,0,.23-.44.52.52,0,0,0-.22-.41,1.08,1.08,0,0,0-.67-.17,3.25,3.25,0,0,0-.91.14l.18-.69a3.42,3.42,0,0,1,1.17-.19,2,2,0,0,1,1.32.38,1.19,1.19,0,0,1,.45.93,1.17,1.17,0,0,1-.5,1,3.08,3.08,0,0,1-1.93.52,5.84,5.84,0,0,1-1.36-.11Zm8.37-7.83-1.77-.32a2.84,2.84,0,0,1,1-1.6,3.72,3.72,0,0,1,2.17-.52,4.65,4.65,0,0,1,1.95.31,1.92,1.92,0,0,1,.9.79,4,4,0,0,1,.26,1.74l0,2.28a7.23,7.23,0,0,0,.1,1.44,4,4,0,0,0,.34,1H96.27c0-.13-.12-.32-.19-.57a1.32,1.32,0,0,0-.07-.23,3.55,3.55,0,0,1-1.07.74,3.07,3.07,0,0,1-1.21.24,2.49,2.49,0,0,1-1.79-.61,2.2,2.2,0,0,1-.36-2.68,1.91,1.91,0,0,1,.84-.75A6.32,6.32,0,0,1,94,196a10.42,10.42,0,0,0,1.9-.48v-.2a1,1,0,0,0-.28-.81,1.68,1.68,0,0,0-1-.24,1.4,1.4,0,0,0-.82.21,1.42,1.42,0,0,0-.47.73Zm2.62,1.58c-.25.08-.65.18-1.19.3a3.37,3.37,0,0,0-1.06.34.81.81,0,0,0-.39.68,1,1,0,0,0,.31.71,1.06,1.06,0,0,0,.78.3,1.7,1.7,0,0,0,1-.34,1.23,1.23,0,0,0,.46-.65,3.9,3.9,0,0,0,.08-1v-.39Zm-2.55-4.8h-.9v-.25a1.58,1.58,0,0,1,.35-1.12,1.16,1.16,0,0,1,.91-.4,2.16,2.16,0,0,1,.46.05,7.74,7.74,0,0,1,.76.3,2.25,2.25,0,0,0,.87.25.55.55,0,0,0,.37-.14.79.79,0,0,0,.19-.47h.9a2.14,2.14,0,0,1-.35,1.35,1.09,1.09,0,0,1-.89.41,1.75,1.75,0,0,1-.46,0,8.47,8.47,0,0,1-.8-.29,2.92,2.92,0,0,0-.93-.25.46.46,0,0,0-.35.13.73.73,0,0,0-.13.48Zm5.94,4.54a4,4,0,0,1,.48-1.88,3.28,3.28,0,0,1,1.36-1.4,4,4,0,0,1,2-.48,3.67,3.67,0,0,1,2.75,1.09,3.76,3.76,0,0,1,1.07,2.76,3.8,3.8,0,0,1-1.08,2.78,3.63,3.63,0,0,1-2.72,1.1,4.26,4.26,0,0,1-1.94-.46,3.13,3.13,0,0,1-1.4-1.34,4.55,4.55,0,0,1-.48-2.17Zm2,.11a2.43,2.43,0,0,0,.52,1.68,1.69,1.69,0,0,0,2.57,0,2.5,2.5,0,0,0,.51-1.7,2.47,2.47,0,0,0-.51-1.67,1.71,1.71,0,0,0-2.57,0,2.44,2.44,0,0,0-.52,1.69Zm11.12,3.68v-10.2h4.34a7.14,7.14,0,0,1,2.37.28,2.3,2.3,0,0,1,1.19,1,2.93,2.93,0,0,1,.44,1.61,2.72,2.72,0,0,1-.67,1.9,3.25,3.25,0,0,1-2,.94,4.7,4.7,0,0,1,1.1.85,11.76,11.76,0,0,1,1.17,1.66l1.24,2H119.1L117.62,198a12.84,12.84,0,0,0-1.09-1.49,1.55,1.55,0,0,0-.62-.43,3.66,3.66,0,0,0-1-.11h-.42v4.26Zm2.06-5.88H116a8,8,0,0,0,1.85-.13,1.08,1.08,0,0,0,.57-.43,1.32,1.32,0,0,0,.21-.77,1.24,1.24,0,0,0-.27-.83,1.3,1.3,0,0,0-.78-.4q-.25,0-1.5,0h-1.61v2.59Zm12.48,3.54,1.95.33a3.09,3.09,0,0,1-1.18,1.63,3.45,3.45,0,0,1-2,.56,3.31,3.31,0,0,1-2.85-1.26,4.21,4.21,0,0,1-.73-2.55,4.11,4.11,0,0,1,1-2.88,3.18,3.18,0,0,1,2.43-1,3.25,3.25,0,0,1,2.59,1.09,4.8,4.8,0,0,1,.91,3.34H124.1a2,2,0,0,0,.47,1.35,1.46,1.46,0,0,0,1.12.49,1.23,1.23,0,0,0,.77-.25,1.52,1.52,0,0,0,.47-.81Zm.12-2a1.91,1.91,0,0,0-.44-1.29,1.31,1.31,0,0,0-1-.44,1.36,1.36,0,0,0-1.06.46,1.83,1.83,0,0,0-.41,1.27Zm2.83,2.24,2-.3a1.37,1.37,0,0,0,.51.86,1.68,1.68,0,0,0,1.07.29,2,2,0,0,0,1.14-.27.64.64,0,0,0,.26-.53.55.55,0,0,0-.14-.37,1.54,1.54,0,0,0-.66-.25,10.42,10.42,0,0,1-3-1,1.93,1.93,0,0,1-.88-1.67,2.05,2.05,0,0,1,.76-1.61,3.53,3.53,0,0,1,2.35-.66,4.09,4.09,0,0,1,2.26.5,2.56,2.56,0,0,1,1,1.47l-1.84.34a1.19,1.19,0,0,0-.45-.67,1.69,1.69,0,0,0-.95-.23,2.05,2.05,0,0,0-1.11.22.46.46,0,0,0-.23.39.45.45,0,0,0,.2.36,7.63,7.63,0,0,0,1.83.55,5.65,5.65,0,0,1,2.19.87,1.8,1.8,0,0,1,.61,1.46,2.21,2.21,0,0,1-.85,1.74,3.72,3.72,0,0,1-2.51.73,4.14,4.14,0,0,1-2.4-.61,2.79,2.79,0,0,1-1.15-1.65Zm8.57-5.31h1.82V194a2.68,2.68,0,0,1,1-.9,2.64,2.64,0,0,1,1.34-.34,2.84,2.84,0,0,1,2.19,1,4.13,4.13,0,0,1,.89,2.82,4.25,4.25,0,0,1-.9,2.88,2.83,2.83,0,0,1-2.19,1,2.59,2.59,0,0,1-1.12-.24,3.66,3.66,0,0,1-1-.83v3.7h-2v-10.2Zm1.92,3.58a2.88,2.88,0,0,0,.49,1.85,1.52,1.52,0,0,0,1.2.59,1.4,1.4,0,0,0,1.13-.55,2.75,2.75,0,0,0,.45-1.79,2.72,2.72,0,0,0-.46-1.74,1.44,1.44,0,0,0-1.15-.56,1.48,1.48,0,0,0-1.19.55,2.52,2.52,0,0,0-.47,1.65Zm6.38,0a4,4,0,0,1,.48-1.88,3.28,3.28,0,0,1,1.36-1.4,4,4,0,0,1,2-.48,3.68,3.68,0,0,1,2.75,1.09,4.11,4.11,0,0,1,0,5.54,3.64,3.64,0,0,1-2.73,1.1,4.22,4.22,0,0,1-1.93-.46,3.08,3.08,0,0,1-1.4-1.34,4.55,4.55,0,0,1-.48-2.17Zm2,.11a2.43,2.43,0,0,0,.52,1.68,1.68,1.68,0,0,0,2.56,0,2.45,2.45,0,0,0,.52-1.7,2.42,2.42,0,0,0-.52-1.67,1.7,1.7,0,0,0-2.56,0,2.44,2.44,0,0,0-.52,1.69Zm13.87,3.68h-2V196.5a6,6,0,0,0-.12-1.54,1.1,1.1,0,0,0-.41-.55,1.19,1.19,0,0,0-.69-.19,1.6,1.6,0,0,0-.91.27,1.41,1.41,0,0,0-.56.74,6.38,6.38,0,0,0-.15,1.7v3.34h-2v-7.39h1.81V194a3,3,0,0,1,2.45-1.24,3.08,3.08,0,0,1,1.19.23,2,2,0,0,1,1.2,1.42,6.12,6.12,0,0,1,.11,1.31v4.59Zm1.28-2.08,2-.3a1.37,1.37,0,0,0,.51.86,1.68,1.68,0,0,0,1.07.29,2,2,0,0,0,1.14-.27.64.64,0,0,0,.26-.53.55.55,0,0,0-.14-.37,1.54,1.54,0,0,0-.66-.25,10.67,10.67,0,0,1-3-1,1.92,1.92,0,0,1-.87-1.67,2,2,0,0,1,.76-1.61,3.49,3.49,0,0,1,2.35-.66,4.07,4.07,0,0,1,2.25.5,2.56,2.56,0,0,1,1,1.47l-1.84.34a1.19,1.19,0,0,0-.45-.67,1.69,1.69,0,0,0-1-.23,2.05,2.05,0,0,0-1.11.22.46.46,0,0,0-.23.39.45.45,0,0,0,.2.36,7.63,7.63,0,0,0,1.83.55,5.51,5.51,0,0,1,2.19.87,1.8,1.8,0,0,1,.61,1.46,2.21,2.21,0,0,1-.85,1.74,3.72,3.72,0,0,1-2.51.73,4.11,4.11,0,0,1-2.39-.61,2.75,2.75,0,0,1-1.15-1.65Zm10.07-3-1.77-.32a2.79,2.79,0,0,1,1-1.6,3.72,3.72,0,0,1,2.17-.52,4.65,4.65,0,0,1,2,.31,2,2,0,0,1,.9.79,4,4,0,0,1,.26,1.74l0,2.28a8.31,8.31,0,0,0,.09,1.44,4.54,4.54,0,0,0,.35,1H177c-.05-.13-.12-.32-.19-.57s-.06-.19-.07-.23a3.55,3.55,0,0,1-1.07.74,3.07,3.07,0,0,1-1.21.24,2.49,2.49,0,0,1-1.79-.61,2.2,2.2,0,0,1-.36-2.68,1.91,1.91,0,0,1,.84-.75,6.18,6.18,0,0,1,1.55-.46,10.42,10.42,0,0,0,1.9-.48v-.2a1,1,0,0,0-.28-.81,1.68,1.68,0,0,0-1-.24,1.4,1.4,0,0,0-.82.21,1.42,1.42,0,0,0-.47.73Zm2.62,1.58c-.25.08-.65.18-1.19.3a3.37,3.37,0,0,0-1.06.34.81.81,0,0,0-.39.68,1,1,0,0,0,.31.71,1.06,1.06,0,0,0,.78.3,1.7,1.7,0,0,0,1-.34,1.23,1.23,0,0,0,.46-.65,3.9,3.9,0,0,0,.08-1v-.39Zm-2.41-4.82,1-2.08h2.18l-1.92,2.08Zm8.29,8.35-3-7.39h2.05l1.39,3.77.4,1.26.21-.63q.09-.32.21-.63l1.41-3.77h2l-2.94,7.39Zm10.16-2.34,2,.33a3.14,3.14,0,0,1-1.18,1.63,3.45,3.45,0,0,1-2,.56,3.3,3.3,0,0,1-2.85-1.26,4.21,4.21,0,0,1-.73-2.55,4.11,4.11,0,0,1,1-2.88,3.15,3.15,0,0,1,2.42-1,3.25,3.25,0,0,1,2.6,1.09,4.8,4.8,0,0,1,.91,3.34h-4.88a2,2,0,0,0,.47,1.35,1.44,1.44,0,0,0,1.12.49,1.23,1.23,0,0,0,.77-.25,1.58,1.58,0,0,0,.47-.81Zm.11-2a1.85,1.85,0,0,0-.43-1.29,1.33,1.33,0,0,0-1-.44,1.35,1.35,0,0,0-1.05.46,1.83,1.83,0,0,0-.41,1.27Zm3.54,4.32v-10.2h2v10.2Z" />
        <polygon points="62.04 92.82 108.84 40.62 125.82 40.62 92.73 77.52 130.52 77.52 119.99 65.77 128.48 56.3 161.22 92.82 150.54 92.82 144.24 92.82 79.02 92.82 74.64 92.82 62.04 92.82 62.04 92.82" />
        <path d="M203.7,187.26a2.87,2.87,0,1,1-2,.84,2.86,2.86,0,0,1,2-.84Zm-1,4.29v-2.84h1.21a2.15,2.15,0,0,1,.66.07.69.69,0,0,1,.33.28.77.77,0,0,1,.13.45.75.75,0,0,1-.19.53,1,1,0,0,1-.56.26,1.28,1.28,0,0,1,.31.24,2.6,2.6,0,0,1,.32.46l.35.55h-.69l-.41-.62a4,4,0,0,0-.3-.41.47.47,0,0,0-.18-.12,1,1,0,0,0-.29,0h-.12v1.18Zm.57-1.64h.43a2.57,2.57,0,0,0,.52,0,.48.48,0,0,0,.16-.12.38.38,0,0,0,.06-.22.36.36,0,0,0-.08-.23.31.31,0,0,0-.22-.11h-.87v.72Zm2.12-1.47a2.39,2.39,0,0,0-3.38,0,2.39,2.39,0,1,0,3.38,3.38,2.39,2.39,0,0,0,0-3.38Z" />
        <path d="M174.67,13.2a97.67,97.67,0,0,1,9.7,9.38,24.49,24.49,0,0,1-.53-9.08A24.08,24.08,0,0,1,187.9,2.78a24.1,24.1,0,0,1,1.24,11.39A24.35,24.35,0,0,1,185.65,24a97,97,0,0,1,9.13,12.44,24.45,24.45,0,0,1,.49-8.64,24.12,24.12,0,0,1,5.16-10.23A24.6,24.6,0,0,1,196,38.47c1.27,2.17,2.45,4.4,3.55,6.67q1.8,3.75,3.29,7.67a24.63,24.63,0,0,1,8.44-17.5,24.58,24.58,0,0,1-7.56,19.94A94.62,94.62,0,0,1,207.5,70a24.59,24.59,0,0,1,2.84-7.41,24.12,24.12,0,0,1,7.91-8.28,24,24,0,0,1-3.29,11,24.35,24.35,0,0,1-7,7.68,95.24,95.24,0,0,1,.94,13.38c0,.45,0,.91,0,1.36a24.53,24.53,0,0,1,3.85-6.56,24.08,24.08,0,0,1,9.11-7,24.63,24.63,0,0,1-13.06,16.8,95.35,95.35,0,0,1-2.14,16,24.71,24.71,0,0,1,16-10.4A24.58,24.58,0,0,1,206,109.77,94.75,94.75,0,0,1,200.65,125a24.63,24.63,0,0,1,18.24-6.55,24.57,24.57,0,0,1-19.36,8.94,94.85,94.85,0,0,1-6,10.69c-.61.93-1.24,1.86-1.88,2.77a24.78,24.78,0,0,1,7.35-3.23,24.07,24.07,0,0,1,11.46-.17,24.63,24.63,0,0,1-20.52,5.75A95.36,95.36,0,0,1,180,154.51a24.72,24.72,0,0,1,19.44.77,24.57,24.57,0,0,1-21.3,1,98.07,98.07,0,0,1-10.47,8.44,24.63,24.63,0,0,1,8-.51A24.13,24.13,0,0,1,186.57,168a24.6,24.6,0,0,1-21.24-1.66A98.43,98.43,0,0,1,152,173.68l-.81-1.81a95.5,95.5,0,0,0,13-7.12,24.51,24.51,0,0,1,4.71-20.82A24.66,24.66,0,0,1,166,163.48a94.39,94.39,0,0,0,10.78-8.61,24.52,24.52,0,0,1,1.52-21.29,24.09,24.09,0,0,1,2.11,11.26,24.57,24.57,0,0,1-1.91,8.4,95.36,95.36,0,0,0,9.76-11.1A24.55,24.55,0,0,1,186,120.92a24.21,24.21,0,0,1,4.07,10.71,24.48,24.48,0,0,1-.41,8.58c.74-1,1.46-2.1,2.16-3.17a93.28,93.28,0,0,0,5.88-10.42,24.56,24.56,0,0,1-6-20.47,24.08,24.08,0,0,1,5.92,9.81,24.45,24.45,0,0,1,1.16,8.41A92.9,92.9,0,0,0,204,109.44a24.54,24.54,0,0,1-11-18.32,24.61,24.61,0,0,1,11.48,16.23,93.32,93.32,0,0,0,2.28-16.23,24.55,24.55,0,0,1-15.46-14.75,24.69,24.69,0,0,1,15.54,12.91c0-1,0-2,0-3a92.39,92.39,0,0,0-.9-13,24.63,24.63,0,0,1-16.88-13.06,24.26,24.26,0,0,1,10.54,4.47,24.58,24.58,0,0,1,6,6.36,93.49,93.49,0,0,0-3.84-15.16,24.58,24.58,0,0,1-18.73-10.23A24.7,24.7,0,0,1,201,53.62q-1.47-3.9-3.26-7.62-1.63-3.37-3.52-6.6a24.58,24.58,0,0,1-19.88-7.67A24.09,24.09,0,0,1,185.73,33a24.55,24.55,0,0,1,7,3.86A94.55,94.55,0,0,0,184,25.16a24.34,24.34,0,0,1-10.38.07,24.12,24.12,0,0,1-10.36-4.89A24.07,24.07,0,0,1,174.72,20a24.77,24.77,0,0,1,7,2.59,94.93,94.93,0,0,0-8.75-8.26,24.41,24.41,0,0,1-7.41-4.77A24,24,0,0,1,159.19,0a24.08,24.08,0,0,1,10,5.65,24.22,24.22,0,0,1,5.51,7.55Z" />
        <path d="M49.71,14.32A95,95,0,0,0,41,22.58a24.77,24.77,0,0,1,7-2.59,24.07,24.07,0,0,1,11.45.35A24.12,24.12,0,0,1,49,25.23a24.5,24.5,0,0,1-10.38-.07A94.55,94.55,0,0,0,30,36.85a24.55,24.55,0,0,1,7-3.86,24.12,24.12,0,0,1,11.39-1.26A24.61,24.61,0,0,1,28.4,39.4q-1.89,3.23-3.52,6.6c-1.19,2.48-2.28,5-3.25,7.62a24.65,24.65,0,0,1,17.88-7.91A24.59,24.59,0,0,1,20.79,55.94,91.47,91.47,0,0,0,17,71.1,24.6,24.6,0,0,1,33.5,60.27,24.08,24.08,0,0,1,26.13,69a24.3,24.3,0,0,1-9.52,4.29,92.39,92.39,0,0,0-.9,13c0,1,0,2,0,3A24.62,24.62,0,0,1,31.3,76.37a24.16,24.16,0,0,1-6.42,9.49,24.15,24.15,0,0,1-9,5.26,93.32,93.32,0,0,0,2.28,16.23,24.54,24.54,0,0,1,3.29-8.22,24.28,24.28,0,0,1,8.2-8,24.58,24.58,0,0,1-11,18.32,92.94,92.94,0,0,0,5.24,14.93A24.44,24.44,0,0,1,25,116a24.09,24.09,0,0,1,5.93-9.81,24.16,24.16,0,0,1-.84,11.43,24.18,24.18,0,0,1-5.19,9A93.2,93.2,0,0,0,30.78,137c.7,1.07,1.42,2.13,2.16,3.17a24.48,24.48,0,0,1-.4-8.58,24.08,24.08,0,0,1,4.06-10.71,24.22,24.22,0,0,1,1.24,11.39,24.35,24.35,0,0,1-3.48,9.83,93.53,93.53,0,0,0,9.76,11.1,24.66,24.66,0,0,1,.19-19.66,24.09,24.09,0,0,1,3.23,11,24.45,24.45,0,0,1-1.7,10.3,95.16,95.16,0,0,0,10.77,8.61,24.31,24.31,0,0,1-3.22-8.11,24,24,0,0,1,.4-11.44,24.13,24.13,0,0,1,4.84,10.38,24.43,24.43,0,0,1-.13,10.44,94.32,94.32,0,0,0,13,7.12l-.82,1.81a98.43,98.43,0,0,1-13.37-7.35A24.6,24.6,0,0,1,36.06,168a24.13,24.13,0,0,1,10.82-3.78,24.63,24.63,0,0,1,8,.51,98.07,98.07,0,0,1-10.47-8.44,24.57,24.57,0,0,1-21.3-1,24.72,24.72,0,0,1,19.44-.77,96.27,96.27,0,0,1-9.88-11.27,24.6,24.6,0,0,1-20.51-5.75,24,24,0,0,1,11.45.17A24.67,24.67,0,0,1,31,140.89c-.64-.91-1.27-1.84-1.88-2.77a96.44,96.44,0,0,1-6-10.69,24.53,24.53,0,0,1-19.35-8.94,24.1,24.1,0,0,1,11.28,2A24.44,24.44,0,0,1,22,125a94.78,94.78,0,0,1-5.33-15.27,24.2,24.2,0,0,1-9.41-4.4A24.06,24.06,0,0,1,0,96.5a24.24,24.24,0,0,1,10.49,4.62A24.33,24.33,0,0,1,16,106.9a95.34,95.34,0,0,1-2.13-16A24.61,24.61,0,0,1,.77,74.14a24,24,0,0,1,9.11,7,24.27,24.27,0,0,1,3.85,6.56c0-.45,0-.91,0-1.36a95.24,95.24,0,0,1,.94-13.38A24.63,24.63,0,0,1,4.38,54.26a24.12,24.12,0,0,1,7.91,8.28A24.33,24.33,0,0,1,15.13,70a94.62,94.62,0,0,1,3.8-14.7,24.58,24.58,0,0,1-7.56-19.94A24.27,24.27,0,0,1,18,44.64a24.51,24.51,0,0,1,1.78,8.17q1.49-3.91,3.29-7.67c1.1-2.27,2.28-4.5,3.55-6.67A24.6,24.6,0,0,1,22.2,17.6a24.12,24.12,0,0,1,5.16,10.23,24.22,24.22,0,0,1,.49,8.64A96.1,96.1,0,0,1,37,24a24.21,24.21,0,0,1-3.5-9.86A24.22,24.22,0,0,1,34.73,2.78,24.08,24.08,0,0,1,38.79,13.5a24.28,24.28,0,0,1-.52,9.08A96.48,96.48,0,0,1,48,13.2a24.49,24.49,0,0,1,5.51-7.56A24.17,24.17,0,0,1,63.44,0a24.12,24.12,0,0,1-6.32,9.55,24.66,24.66,0,0,1-7.41,4.77Z" />
    </g>
</svg>